<svg width="16" height="16" viewBox="0 0 16 16" fill="none" xmlns="http://www.w3.org/2000/svg">
<path fill-rule="evenodd" clip-rule="evenodd" d="M5.20785 1.06971C5.20785 0.672008 5.53075 0.349609 5.92906 0.349609H10.0596C10.4579 0.349609 10.7808 0.672008 10.7808 1.06971V2.44444H13.6C13.9802 2.44444 14.2884 2.75218 14.2884 3.13181C14.2884 3.51143 13.9802 3.81917 13.6 3.81917H2.38861C2.00841 3.81917 1.7002 3.51143 1.7002 3.13181C1.7002 2.75218 2.00841 2.44444 2.38861 2.44444H5.20785V1.06971ZM6.58469 2.44444H9.40393V1.72434H6.58469V2.44444ZM3.04425 4.47381C3.42446 4.47381 3.73267 4.78155 3.73267 5.16117V12.9841C3.73267 13.6891 4.30507 14.2606 5.01116 14.2606H10.9447C11.6508 14.2606 12.2232 13.6891 12.2232 12.9841V5.16117C12.2232 4.78155 12.5314 4.47381 12.9116 4.47381C13.2918 4.47381 13.6 4.78155 13.6 5.16117V12.9841C13.6 14.4483 12.4112 15.6353 10.9447 15.6353H5.01116C3.54467 15.6353 2.35583 14.4483 2.35583 12.9841V5.16117C2.35583 4.78155 2.66405 4.47381 3.04425 4.47381ZM6.58469 5.914C6.9649 5.914 7.27311 6.22175 7.27311 6.60137V11.5111C7.27311 11.8907 6.9649 12.1985 6.58469 12.1985C6.20449 12.1985 5.89627 11.8907 5.89627 11.5111V6.60137C5.89627 6.22175 6.20449 5.914 6.58469 5.914ZM9.37115 5.914C9.75136 5.914 10.0596 6.22175 10.0596 6.60137V11.5111C10.0596 11.8907 9.75136 12.1985 9.37115 12.1985C8.99095 12.1985 8.68273 11.8907 8.68273 11.5111V6.60137C8.68273 6.22175 8.99095 5.914 9.37115 5.914Z" fill="#333333"/>
</svg>
